<?xml version="1.0" encoding="iso-8859-1"?>
<!-- Generator: Adobe Illustrator 16.0.0, SVG Export Plug-In . SVG Version: 6.00 Build 0)  -->
<!DOCTYPE svg PUBLIC "-//W3C//DTD SVG 1.1//EN" "http://www.w3.org/Graphics/SVG/1.1/DTD/svg11.dtd">
<svg xmlns="http://www.w3.org/2000/svg" xmlns:xlink="http://www.w3.org/1999/xlink" version="1.1" id="Capa_1" x="0px" y="0px" width="512px" height="512px" viewBox="0 0 620.692 620.692" style="enable-background:new 0 0 620.692 620.692;" xml:space="preserve">
<g>
	<g id="Search_1_">
		<g>
			<path d="M605.232,555.851L479.167,429.786c35.489-45.192,56.852-102.025,56.852-163.947C536.019,119.02,416.999,0,270.18,0     C123.36,0,4.34,119.02,4.34,265.839c0,146.819,119.02,265.839,265.839,265.839c57.478,0,110.532-18.419,154.016-49.428     l127.317,127.318c14.83,14.83,38.87,14.83,53.7,0C620.062,594.739,620.062,570.681,605.232,555.851z M417.778,399.557     c-5.07,1.842-9.894,4.538-13.957,8.62c-3.74,3.741-6.513,8.07-8.374,12.685c-34.236,27.704-77.796,44.357-125.267,44.357     c-110.115,0-199.379-89.265-199.379-199.379S160.065,66.46,270.18,66.46s199.379,89.265,199.379,199.379     C469.559,317.355,449.849,364.162,417.778,399.557z" fill="#c8c8c8"/>
		</g>
	</g>
</g>
<g>
</g>
<g>
</g>
<g>
</g>
<g>
</g>
<g>
</g>
<g>
</g>
<g>
</g>
<g>
</g>
<g>
</g>
<g>
</g>
<g>
</g>
<g>
</g>
<g>
</g>
<g>
</g>
<g>
</g>
</svg>
