<svg width="56.7" height="56.7" xmlns="http://www.w3.org/2000/svg">

 <g>
  <title>background</title>
  <rect fill="none" id="canvas_background" height="402" width="582" y="-1" x="-1"/>
 </g>
 <g>
  <title>Layer 1</title>
  <path fill="#fcfcf9" id="svg_2" d="m38.8,24.6c-2.8,0 -3.7,2.7 -3.9,4.3l0,0.1l-0.4,1.5c1.2,1 2.7,1.7 4.2,1.7c2,0 3.8,-1.7 3.9,-3.9c0,-2 -1.7,-3.7 -3.8,-3.7z"/>
  <path fill="#fcfcfc" id="svg_3" d="m28.9,3.7c-13.7,0 -24.8,11.1 -24.8,24.8c0,13.7 11.1,24.8 24.8,24.8c13.7,0 24.8,-11.1 24.8,-24.8c0,-13.7 -11.1,-24.8 -24.8,-24.8zm9.9,32.4c-2,0 -3.7,-0.6 -5.2,-1.5l-1.7,8l-3.9,0l2.4,-11c-1,-1.4 -2,-3 -2.7,-4.5l0,1.7c0,4.1 -3.3,7.4 -7.3,7.4c-4,0 -7.3,-3.3 -7.3,-7.4l0,-10l3.8,0l0,10c0,2 1.6,3.6 3.6,3.6c2,0 3.6,-1.6 3.6,-3.6l0,-10l3.8,0c0.8,2.5 2.1,5.5 3.8,8.2c1,-3.8 3.8,-6.1 7.3,-6.1c4.1,0 7.5,3.4 7.5,7.5c-0.2,4.3 -3.6,7.7 -7.7,7.7z"/>
 </g>
</svg>