<?xml version="1.0" encoding="iso-8859-1"?>
<!-- Generator: Adobe Illustrator 18.1.1, SVG Export Plug-In . SVG Version: 6.00 Build 0)  -->
<svg xmlns="http://www.w3.org/2000/svg" xmlns:xlink="http://www.w3.org/1999/xlink" version="1.1" id="Capa_1" x="0px" y="0px" viewBox="0 0 320.83 320.83" style="enable-background:new 0 0 320.83 320.83;" xml:space="preserve" width="512px" height="512px">
<g>
	<g>
		<path d="M21.617,290.246h277.604c9.469,0,17.013-4.553,20.168-12.184c2.904-7.011,1.36-14.8-4.107-21.212    L180.497,39.684l-1.333-1.333c-5.009-5.009-11.667-7.767-18.748-7.767c-7.082,0-13.739,2.758-18.743,7.767l-1.333,1.333    L5.55,256.844c-5.466,6.413-7.016,14.207-4.106,21.212C4.603,285.688,12.142,290.246,21.617,290.246z M160.416,69.213    l116.934,188.393H43.487L160.416,69.213z" fill="#d4c974"/>
		<path d="M160.416,105.345c-9.197,0-16.654,7.457-16.654,16.654v71.388c0,9.197,7.457,16.654,16.654,16.654    s16.654-7.457,16.654-16.654v-71.388C177.076,112.802,169.619,105.345,160.416,105.345z" fill="#d4c974"/>
		<circle cx="160.248" cy="234.903" r="16.486" fill="#d4c974"/>
	</g>
</g>
<g>
</g>
<g>
</g>
<g>
</g>
<g>
</g>
<g>
</g>
<g>
</g>
<g>
</g>
<g>
</g>
<g>
</g>
<g>
</g>
<g>
</g>
<g>
</g>
<g>
</g>
<g>
</g>
<g>
</g>
</svg>
